<?xml version="1.0" encoding="utf-8"?>
<!-- Generator: Adobe Illustrator 19.2.1, SVG Export Plug-In . SVG Version: 6.00 Build 0)  -->
<svg version="1.1" id="Layer_1" xmlns="http://www.w3.org/2000/svg" xmlns:xlink="http://www.w3.org/1999/xlink" x="0px" y="0px"
	 viewBox="0 0 500 500" style="enable-background:new 0 0 500 500;" xml:space="preserve">
<g id="dOuafo.tif">
	<g>
		<path d="M407.3,404.7c-5.9-5.1-11.8-10.1-17.6-15.4c-24.1-21.7-48.1-43.5-72.2-65.3c-0.9-0.8-1.8-1.5-2.4-2
			c-7.1,6-13.7,12.3-21,17.8c-17.4,13.1-37.2,21.5-58.7,24.5c-42.4,5.8-79.6-5.9-111.1-34.9c-20.8-19.1-34.1-42.6-40.3-70.1
			c-1.1-5-1.5-10.1-2.3-15.2c-0.1-0.8-0.4-1.7-0.6-2.5c0-6.8,0-13.6,0-20.5c0.2-0.8,0.5-1.7,0.6-2.5c0.8-5.2,1.2-10.4,2.4-15.5
			c5.2-23.6,16-44.3,32.3-62.1c19.6-21.4,43.7-35.4,72.2-41.4c5.1-1.1,10.3-1.8,15.4-2.7c7.7,0,15.4,0,23.1,0
			c5.5,0.9,11,1.5,16.4,2.8c22.6,5.1,42.7,15.2,60.2,30.5c20.6,18.1,34.5,40.3,41.8,66.7c4.2,15.4,5.3,31,3.9,46.9
			c-2.4,26.2-12.4,47.8-23.9,64.3c6.3,5.7,12.6,11.5,19,17.3c15.3,13.8,30.5,27.6,45.8,41.4c8,7.2,15.9,14.5,24,21.6
			c6.5,5.7,6.2,11.7-1,16.2C411.3,404.7,409.3,404.7,407.3,404.7z M338.5,231.3c-0.6-68.7-53.3-122.7-122.8-122.8
			c-69.8-0.2-122.9,54.9-123,122.8c0,69,55.1,122.7,122.6,122.8C283,354.1,338,300.8,338.5,231.3z"/>
		<path d="M168.8,256.2c0-16.8,0-33,0-49.8c-1.4,0-2.7,0-3.9,0c-13.2,0-26.4,0-39.6,0c-1.2,0-2.4,0-3.6-0.3
			c-3.4-0.7-5.2-3.1-4.9-6.3c0.3-2.9,2.7-5.1,5.9-5.1c10.6,0,21.1,0,31.7,0c6.7,0,13.4,0,20.1,0c4,0,6.3,2.3,6.3,6.3
			c0,20.1,0,40.3,0,60.4c0,4.1-2.4,6.5-6.6,6.6c-16.9,0-33.9,0-50.8,0c-3.9,0-6.5-2.4-6.6-5.8c-0.1-3.6,2.6-6,6.7-6.1
			c13.9,0,27.7,0,41.6,0C166.2,256.2,167.4,256.2,168.8,256.2z"/>
		<path d="M255.7,237c-17.4,0-34.8,0-52.2,0c-2.6,0-4.8-0.8-5.5-3.2c-0.5-1.8-0.4-4.2,0.5-5.7c0.7-1.3,3-2.2,4.6-2.3
			c4.3-0.3,8.6-0.1,12.9-0.1c29.5,0,59-0.1,88.5-0.1c1.2,0,2.4,0,3.6,0c3.9,0.3,6.1,2.4,6,5.9c-0.1,3.5-2.3,5.5-6.3,5.5
			C290.5,237,273.1,237,255.7,237C255.7,237,255.7,237,255.7,237z"/>
		<path d="M252.5,268c-16.1,0-32.1,0-48.2,0c-4.3,0-7.1-2.5-6.9-6.2c0.1-3.3,2.8-5.7,6.8-5.7c11.9,0,23.8,0,35.6,0
			c20.5,0,40.9,0,61.4,0c5.6,0,8.9,4.7,5.9,8.8c-1.2,1.6-4,2.9-6.1,2.9C284.8,268.1,268.6,268,252.5,268z"/>
		<path d="M252.8,194.7c16.2,0,32.3,0.1,48.5-0.1c3.2,0,6.4,1.6,6.9,5.6c0.4,3.3-2.5,6.1-6.7,6.1c-7.1,0.1-14.3,0-21.4,0
			c-24.6,0-49.2,0-73.9,0c-1.3,0-2.6,0-3.9-0.3c-3.2-0.6-5.1-3-4.9-6c0.2-3,2.7-5.3,6-5.4c11.9,0,23.7,0,35.6,0
			C243.5,194.7,248.1,194.7,252.8,194.7z"/>
	</g>
</g>
</svg>
