<?xml version="1.0" encoding="utf-8"?>
<!-- Generator: Adobe Illustrator 19.2.1, SVG Export Plug-In . SVG Version: 6.00 Build 0)  -->
<svg version="1.1" id="Layer_1" xmlns="http://www.w3.org/2000/svg" xmlns:xlink="http://www.w3.org/1999/xlink" x="0px" y="0px"
	 viewBox="0 0 500 500" style="enable-background:new 0 0 500 500;" xml:space="preserve">
<g id="zZiuXv.tif">
	<g>
		<path d="M316.2,49c13,0,25.9,0,38.9,0c0,12.9,0,25.8,0,39c-4.7,0-8.7,0-13,0c0,8.1,0,15.9,0,23.7c0,13.8-8.9,24.7-22.6,27.3
			c-3.5,0.7-7.2,0.7-11.3,1c3.8,8.2,7.4,16.4,11.4,24.4c0.4,0.8,2.2,1.3,3.4,1.3c8.2,0.1,16.5-0.1,24.7,0.1c2.9,0.1,4-1.1,5-3.5
			c9.9-23.3,20.3-46.4,29.7-69.9c4.1-10.4,9.5-19,19.3-24.6c1-0.6,2-1.4,2.9-2.1c7.3-5.3,14.5-10.6,21.8-15.9c0,15.4,0,30.8,0,46.2
			c-0.5,0.8-1.1,1.5-1.4,2.3c-6.1,14.6-12.1,29.2-18.2,43.8c-3.2,7.7-6.5,15.5-9.9,23.7c3.8,0,7.1-0.1,10.3,0.1c1,0.1,2.7,1,2.8,1.8
			c1,5.4,2.2,10.8,2.5,16.3c0.6,12.8,1,25.6,0.8,38.4c-0.3,15.7-2.3,31.3-6.8,46.4c-10.9,36.6-31.6,66.5-61.9,89.8
			c-1.3,1-2.4,3-2.4,4.6c-0.1,29.3-0.1,58.6,0,87.9c-51.6,0-103.2,0-154.8,0c-0.2-1.6-0.5-3.2-0.5-4.8c0-16.3,0-32.7,0-49
			c0-1.6,0-3.1,0-4.9c-2.2,0-3.6,0-5.1,0c-18.5,0-37-0.1-55.5,0.1c-3.4,0-4.4-1-4.3-4.3c0.2-12.3,0.1-24.6,0.1-36.9
			c0-12.3,0-24.6,0-36.9c0-2.6-0.3-4-3.5-4.6c-9.6-1.8-19-4.2-28.5-6.4c-5.4-1.3-10.7-2.6-16.4-4c0.9-1.7,1.5-2.9,2.1-4.1
			c13-23.2,25.9-46.4,39.1-69.5c1.9-3.3,2.5-6.5,2-10c-2-15.8-1.1-31.4,1.7-47c0.4-2.2,1.3-3.2,3.8-3c4,0.2,8,0.1,12.2,0.1
			c0.1-1,0.1-1.7,0.2-2.3c0.8-5.3-1.2-8.8-5.4-12.5c-15.8-13.9-23.2-31.9-19.4-52.7c4.4-23.9,19.2-39.7,42.7-46.8
			c3.4-1,6.9-1.6,10.4-2.4c2.7,0,5.4,0,8.1,0c0.6,0.3,1.1,0.7,1.8,0.8c25.4,3,45.5,21.3,50.9,46.5c0.6,3,1.1,6,1.7,9
			c0.2,0,0.4,0,0.6-0.1c4.9-17.1,9.8-34.2,14.8-51.6c21.6,9.3,42.5,18.2,64,27.5c-5.8,2.9-10.8,5.5-15.9,7.8
			c-2.8,1.3-3.5,2.7-2.1,5.6c3.1,6.2,5.9,12.6,8.9,18.9c2.1,4.5,3.2,10.6,6.8,12.8c3.6,2.3,9.7,0.7,14.7,0.7c7,0,11.9-4.9,11.9-11.9
			c0-7.8,0-15.7,0-23.5c0-1.2-0.2-2.3-0.3-3.8c-4.3,0-8.3,0-12.8,0C316.2,74.6,316.2,61.8,316.2,49z M199.5,379.7
			c0,19.7,0,38.9,0,58.1c43.5,0,86.5,0,129.9,0c0-1.9,0-3.5,0-5c0-24.9,0-49.7-0.1-74.6c0-3,0.8-4.9,3.3-6.6
			c15.5-10.5,28.6-23.4,39.3-38.6c18.5-26.3,28.2-55.5,28.6-87.7c0.1-11.6,0.1-23.2,0-34.8c0-3.8-0.7-7.7-1-11.8c-2,0-3.6,0-5.2,0
			c-86.4,0-172.9,0-259.3,0c-0.9,0-1.9,0.1-2.8,0c-2.3-0.2-3.1,0.9-3.3,3c-1.1,12.4-1.5,24.7,0.8,37c0.6,3.1,0.1,5.8-1.6,8.7
			c-8.3,14.4-16.4,29-24.5,43.6c-3.7,6.6-7.4,13.3-11.2,20.1c14.4,3.3,28.2,6.4,42.4,9.7c0,26.3,0,52.5,0,78.9
			C156.4,379.7,177.6,379.7,199.5,379.7z M186.6,165.6c0-4.1,0.2-7.7-0.1-11.3c-0.3-3.9,0.8-6.1,4.5-8.3
			c23.2-13.7,27.2-42.5,15.2-62.7c-9.9-16.7-28.6-24.8-49.4-20.5c-25.8,5.4-38.4,28.5-34.7,52.5c2.2,14.4,10.4,24.8,22.9,31.9
			c2.1,1.2,2.7,2.5,2.6,4.8c-0.2,4.5,0,9.1,0,13.4c4.7,0,8.8,0,13.1,0c0-12.5-0.1-24.6,0.1-36.8c0-2.4-0.7-3.8-2.8-5.1
			c-7.7-4.6-11.4-12.6-9.3-20.4c2.3-8.8,10.7-15.4,19.2-15.1c8.1,0.3,16.1,7.5,17.9,15.2c1.8,7.7-1.7,15.6-9.2,20.1
			c-2.2,1.3-3.1,2.7-3.1,5.4c0.2,11.1,0.1,22.1,0.1,33.2c0,1.2,0.2,2.3,0.2,3.6C178.1,165.6,182.1,165.6,186.6,165.6z M364.6,165.8
			c6,0,11.3,0.1,16.5-0.1c1.1,0,2.8-1.1,3.2-2.1c9.3-21.9,18.4-43.9,27.7-66.2c-5-2.5-9.8-4.9-14.9-7.4
			C386.2,115.3,375.5,140.3,364.6,165.8z M247.8,92.7c0.7,1.4,1.3,2.5,1.8,3.7c4.1,9.1,8.2,18.3,12.5,27.4c0.5,1.2,1.8,2.9,2.8,2.9
			c7.6,0.2,15.2,0.1,23.6,0.1c-6.6-14.3-12.9-28-19.2-41.7c2-1.1,3.7-2.1,6.1-3.4c-9-3.9-17.4-7.5-26.4-11.4
			c-2.3,8.3-4.6,16.2-7,24.8C244.5,94.1,246,93.4,247.8,92.7z M241.9,109.3c-5.2,2.5-10,4.6-14.4,7.3c-1.8,1.1-3.7,3.2-4.3,5.2
			c-3.4,12.1-9.5,22.7-19.6,30.2c-5.4,4.1-4.1,8.7-4,13.5c8.9,0,17.3,0,26.1,0c-1.9-19.2,3-34,24.1-38.6
			C247.2,120.9,244.7,115.4,241.9,109.3z M306.4,165.8c-3.9-8.6-7.6-16.8-11.4-24.9c-0.3-0.6-1.3-1.1-1.9-1.1
			c-7.6-0.1-15.3,0-23.6,0c3.9,8.7,7.5,16.7,11.2,24.7c0.3,0.7,1.4,1.3,2.2,1.3C290.5,165.8,298.1,165.8,306.4,165.8z M267.5,165.6
			c-3.8-8.5-7.5-16.6-11.2-24.7c-0.2-0.4-0.7-0.9-1.1-1c-6.3-2.6-15.8,2.4-16.6,9.3c-0.6,5.4-0.1,10.9-0.1,16.7c8.9,0,17.4,0,25.8,0
			C265.2,165.8,266.1,165.7,267.5,165.6z M329.4,62.1c0,4.6,0,8.7,0,12.6c4.4,0,8.5,0,12.5,0c0-4.4,0-8.5,0-12.6
			C337.6,62.1,333.6,62.1,329.4,62.1z M160.5,107.1c0,5,1.6,6.7,6.2,6.8c5.2,0.1,6.9-1.6,6.9-6.5c0-4.9-1.7-6.6-6.4-6.6
			C162.3,100.8,160.6,102.4,160.5,107.1z M413.2,84.1c0-3.2,0-6,0-9.2c-2.6,2-4.8,3.6-7.4,5.6C408.5,81.7,410.7,82.8,413.2,84.1z"/>
		<path d="M148,198.4c4,0,8,0,12.3,0c0.2,6,2,11.3,6.8,15.2c4.7,3.9,10.2,4.4,16,4.1c9.3-0.5,15.9-8,16.7-19.2c4.1,0,8.2,0,12.3,0
			c-0.4,17.1-14.7,31.9-32.2,31.8C161.8,230.1,148.4,214.9,148,198.4z"/>
	</g>
</g>
</svg>
