<?xml version="1.0" encoding="utf-8"?>
<!-- Generator: Adobe Illustrator 19.2.1, SVG Export Plug-In . SVG Version: 6.00 Build 0)  -->
<svg version="1.1" id="Layer_1" xmlns="http://www.w3.org/2000/svg" xmlns:xlink="http://www.w3.org/1999/xlink" x="0px" y="0px"
	 viewBox="0 0 500 500" style="enable-background:new 0 0 500 500;" xml:space="preserve">
<g id="xktYp2.tif">
	<g>
		<path d="M58,425.7c0-59.4,0-118.7,0-178.1c0.4-1,0.9-2,1.3-3c2.6-6.6,6.9-8.5,13.4-5.7c1.2,0.5,2.4,1.1,3.7,1.7
			c0.1-0.7,0.2-0.9,0.2-1.2c0-24.2,0-48.5,0-72.7c0-13.6,8.2-21.9,21.8-21.9c55.2,0,110.4,0,165.6,0c1.5,0,3,0,4.6,0
			c1.2-26.2,12.5-46.5,33.9-61.9c-7.6,0-14.4,0-21.7,0c0,4.1,0,8,0,12c-12.5,0-24.6,0-37,0c0-12.4,0-24.7,0-36.9
			c12.4,0,24.8,0,37.2,0c0,4.1,0,8.1,0,12.2c41.5,0,82.6,0,123.9,0c0-4.2,0-8.2,0-12.2c12.4,0,24.8,0,37.2,0c0,12.4,0,24.8,0,37.2
			c-12.3,0-24.6,0-37.2,0c0-4.5,0-8.3,0-12.2c-7.1,0-13.9,0-21.4,0c21.5,15.4,32.6,35.8,33.8,61.8c1.5,0,2.7,0,3.8,0
			c6.7-0.1,12.4,2.3,16.5,7.6c1.9,2.5,3.1,5.7,4.6,8.6c0,80,0,160,0,240c-4.2,12.6-13.3,16.5-26.1,16.3c-49-0.4-98-0.2-147.1-0.2
			c-1.5,0-2.9,0-4.8,0c3,3.2,5.8,5.6,7.8,8.5c5,7.2,2.8,13.1-5.6,15.5c-0.6,0.2-1,0.5-1.6,0.8c-63.5,0-127,0-190.5,0
			c-1.6-0.7-3.2-1.3-4.7-2C63.4,437.1,60.2,431.8,58,425.7z M171.7,330.4c1,1.1,1.3,1.5,1.7,1.8c25.1,23.6,50.1,47.3,75.3,70.8
			c1.3,1.2,3.6,1.8,5.5,1.8c56.3,0.1,112.5,0.1,168.8,0.1c5.4,0,6.9-1.4,6.9-6.8c0-62.4,0-124.9,0-187.3c0-1.4,0-2.7,0-4.2
			c-14.8,0-29-0.1-43.2,0.1c-2.1,0-5.6,1.3-6.1,2.7c-0.7,2.5-0.5,6.2,0.9,8.3c5.7,8,6.2,11.2,1.8,18.8c1,4.7,2.9,8.6,2.4,12.2
			c-1.3,8.6-8.2,13.7-16.9,13.7c-16.9,0-33.8,0-50.7,0c-14.8,0-22-12-14.7-24.7c-4.7-8.3-4.7-12.8,0.9-19.2c2.6-2.9,2.2-6.2,1.3-9
			c-0.8-2.7-4.1-2.9-6.9-2.9c-68.4,0-136.8,0-205.1,0c-1.4,0-2.8,0-4,0c-0.3,0.7-0.4,0.9-0.4,1.1c0,14.4-0.1,28.9,0,43.3
			c0,0.8,0.2,1.9,0.8,2.4c3.6,3.5,7.4,6.9,11.9,11.1c0-15.9,0-30.6,0-45.2c53.8,0,107.2,0,160.5,0c0,37.1,0,73.9,0,111
			C232.1,330.4,202.3,330.4,171.7,330.4z M259.6,429.7c-63.4-59.6-126-118.5-189-177.7c0,10.1,0,19.5,0,29.3c4.1,0,8,0,11.9,0
			c0,4.1,0,7.9,0,12.2c-4.1,0-8,0-11.9,0c0,4.4,0,8.3,0,12.5c4.1,0,7.9,0,11.8,0c0,4.2,0,8.1,0,12.3c-4.1,0-8,0-11.8,0
			c0,4.2,0,8.2,0,12.5c4.2,0,8.1,0,11.9,0c0,4.3,0,8.1,0,12.2c-4.1,0-7.9,0-11.9,0c0,4.2,0,8.2,0,12.5c4.1,0,8,0,11.9,0
			c0,4.3,0,8.1,0,12.3c-4.1,0-8.1,0-11.8,0c0,4.4,0,8.3,0,12.5c4.1,0,8,0,11.9,0c0,4.1,0,7.9,0,12.2c-4.1,0-8,0-11.9,0
			c0,4.4,0,8.3,0,12.5c4.1,0,7.9,0,11.8,0c0,4.2,0,8.1,0,12.3c-4.1,0-7.9,0-12.1,0c0,1.6,0,2.8,0,4.1c0,7.5,0.9,8.3,8.4,8.3
			c58.6,0,117.1,0,175.7,0C255.8,429.7,257.2,429.7,259.6,429.7z M113.7,231.5c0,14.6,0,28.9,0.1,43.2c0,1,0.8,2.1,1.6,2.8
			c13.4,12.7,26.8,25.3,40.2,38c2.1,2,4.3,2.8,7.2,2.8c27.6-0.1,55.2-0.1,82.8-0.1c1.4,0,2.7,0,4.2,0c0-29.1,0-57.8,0-86.7
			C204.5,231.5,159.4,231.5,113.7,231.5z M367.7,212.7c0-2.3,0.2-4.5-0.1-6.6c-0.4-3.2,0.7-5,3.7-6.4c8.9-4.4,16.3-10.6,22.1-18.8
			c10.3-14.7,13.5-31,10.4-48.3c-2.4-13.9-9.1-25.8-20-35.1c-15-12.7-32.5-16.9-51.8-13.9c-35.1,5.4-57.1,38.5-50.1,73.5
			c3.9,19.8,15.4,34.1,33.3,43.2c2.2,1.1,3,2.3,2.8,4.7c-0.2,2.6,0,5.3,0,7.8c6.5,0,12.4,0,18.5,0c0-15,0-29.7,0-44.4
			c-13.2-4.6-19.2-16.5-18.1-25.1c1.7-14.1,12.6-22.6,24.1-22.9c11.1-0.3,21.2,7.7,24.2,19.1c3.6,13.6-6.1,24.9-17.3,29.1
			c0,14.8,0,29.5,0,44.3C355.6,212.7,361.5,212.7,367.7,212.7z M287.5,194.2c-0.6-1-0.8-1.4-1.1-1.8c-7.8-9.1-13.1-19.6-15.7-31.3
			c-0.7-3.3-2-4.1-5.3-4.1c-54.9,0.1-109.9,0.1-164.8,0c-11.8,0-11.9-0.1-11.8,11.6c0.1,8.5,0,16.9,0,25.6
			C155.2,194.2,221,194.2,287.5,194.2z M416,157c-2.6,14.2-8.6,26.1-17.9,37c10.9,0,21.1,0,31.6,0c0-10.9,0-21.6,0-32.3
			c0-2.9-1.7-4.6-4.6-4.7C422.1,156.9,419.2,157,416,157z M330.4,144.5c0,8.1,4.3,12.6,12,12.6c8.4,0,12.9-4.2,12.9-12.1
			c0-8.4-4.2-12.8-12.2-12.8C334.8,132.2,330.5,136.4,330.4,144.5z M342.5,231.5c9.3,0,18.6,0,27.8,0c2.2,0,3.7-0.3,3.7-3.1
			c0-2.6-1-3.3-3.5-3.3c-18.4,0.1-36.9,0.1-55.3,0c-2.4,0-3.5,0.7-3.5,3.3c0,2.8,1.4,3.1,3.6,3.1
			C324.5,231.4,333.5,231.5,342.5,231.5z M342.6,250.1c9.3,0,18.6-0.1,27.8,0c2.4,0,3.5-0.6,3.5-3.2c0-2.7-1.3-3.2-3.6-3.2
			c-18.3,0.1-36.6,0-54.9,0c-2.2,0-3.7,0.2-3.7,3c0,2.9,1.3,3.4,3.8,3.4C324.6,250,333.6,250.1,342.6,250.1z M256.4,70.5
			c0,4.3,0,8.2,0,12.1c4.2,0,8.1,0,12,0c0-4.2,0-8.1,0-12.1C264.3,70.5,260.5,70.5,256.4,70.5z M429.5,82.7c0-4.2,0-8.1,0-12.1
			c-4.1,0-8,0-12.1,0c0,4.1,0,8,0,12.1C421.4,82.7,425.2,82.7,429.5,82.7z"/>
		<path d="M417,306.1c0,4,0,7.7,0,11.7c-47.3,0-94.4,0-141.9,0c0-3.8,0-7.6,0-11.7C322.2,306.1,369.5,306.1,417,306.1z"/>
		<path d="M275,293c0-4,0-7.7,0-11.7c47.3,0,94.5,0,141.9,0c0,3.8,0,7.6,0,11.7C369.8,293,322.5,293,275,293z"/>
		<path d="M275,342.5c0-4,0-7.7,0-11.7c47.3,0,94.5,0,141.9,0c0,3.8,0,7.6,0,11.7C369.8,342.5,322.5,342.5,275,342.5z"/>
		<path d="M275,367.3c0-4,0-7.7,0-11.7c47.3,0,94.5,0,141.9,0c0,3.8,0,7.6,0,11.7C369.8,367.3,322.5,367.3,275,367.3z"/>
		<path d="M101.7,324.3c26.4,24.8,52.2,49.1,78.6,73.9c-26.5,0-52.4,0-78.6,0C101.7,373.9,101.7,349.5,101.7,324.3z M113.9,386.1
			c12,0,23.6,0,36.2,0c-12.3-11.6-24-22.6-36.2-34.1C113.9,363.8,113.9,374.8,113.9,386.1z"/>
		<path d="M163.2,175.6c0.1,2.7-3,6-5.9,6.2c-2.9,0.2-6.3-3.2-6.3-6.2c0.1-2.8,3.3-6,6.1-6C159.8,169.6,163.1,172.8,163.2,175.6z"/>
		<path d="M138.4,175.8c-0.1,2.8-3.4,6-6.2,5.9c-2.8-0.1-6-3.3-6-6.1c0-2.9,3.5-6.3,6.3-6.1C135.4,169.8,138.5,173.1,138.4,175.8z"
			/>
		<path d="M113.6,175.8c-0.1,2.8-3.3,6-6.1,6c-2.8,0-6-3.2-6.1-6c-0.1-2.9,3.4-6.3,6.3-6.2C110.6,169.7,113.7,173,113.6,175.8z"/>
	</g>
</g>
</svg>
