<?xml version="1.0" encoding="utf-8"?>
<!-- Generator: Adobe Illustrator 19.2.1, SVG Export Plug-In . SVG Version: 6.00 Build 0)  -->
<svg version="1.1" id="Layer_1" xmlns="http://www.w3.org/2000/svg" xmlns:xlink="http://www.w3.org/1999/xlink" x="0px" y="0px"
	 viewBox="0 0 500 500" style="enable-background:new 0 0 500 500;" xml:space="preserve">
<g id="zZiuXv.tif">
	<g id="eldFCE.tif">
		<g>
			<path d="M171.8,463.7c0.8-8.7-1.6-16.9-4.8-24.8c-4.8-11.7-10.1-23.2-13.8-35.2c-3.7-11.9-3.8-24.5-1.6-36.8
				c1.6-8.5,7.5-13.8,15.9-15.9c2.5-0.6,4.4-1.2,5.1-4.3c2.8-11.7,10.9-17.9,22.9-17.9c1.5,0,2.9,0,4.3,0c3.1-16.3,14.5-25,36-19.8
				c0-10.3,0-20.5,0-30.7c0-14.5,8.8-25,23-27.5c9.8-1.8,23.4,8.5,25.7,19.5c0.6,3,0.9,6.1,0.9,9.2c0.1,24.1,0,48.3,0,72.4
				c0,1.6,0,3.2,0,4.8c3.4,0.5,6.5,0.6,9.4,1.5c6.6,2,11.9,5.8,14.6,12.4c3,7.5,6,15,8.9,22.5c3.9,10.3,3.2,20.4-1.6,30.3
				c-0.6,1.3-1.1,2.7-1.9,4c-7.5,11-9.3,23.3-7.9,36.3c-4.7,0-9.5,0-14.2,0c0.2-9.2-0.9-18.7,2.8-27.5c2.7-6.3,6-12.5,9.1-18.6
				c3.1-6.1,3.4-12.6,1.3-18.9c-2.6-7.8-5.9-15.3-8.9-23c-1.3-3.3-3.5-4.6-7.2-4.6c-8.9,0.2-17.8,0.1-26.6,0.1
				c-7.7,0-12.4,3.8-13.3,10.7c-1,7.9,2.5,13.2,10.1,15.2c4.7,1.2,9.4,2.3,14,3.6c1.1,0.3,2.6,1.1,2.9,2.1c2.7,7.5,5.1,15.2,7.7,23
				c-4.5,1.5-8.6,2.8-12.8,4.2c-1.7-5.1-3.2-9.9-5-14.5c-0.5-1.3-1.8-2.7-3.1-3.2c-6.5-2.5-13-4.8-19-6.9c-5.1,1.7-10.3,3.5-16,5.4
				c-1.5,8-6.3,14.6-15.2,16.9c-9.2,2.4-17.5,0.2-23.9-7.4c-1.5-1.8-3.3-3.3-5-5c-6.1-6.2-12.1-12.4-18.2-18.6
				c-0.4,0.2-0.7,0.4-1.1,0.6c0.2,1.2,0.2,2.5,0.6,3.6c2.8,7.4,5.4,14.9,8.7,22.1c6,13.1,10.9,26.3,11.2,40.9
				C181.3,463.7,176.6,463.7,171.8,463.7z M270.9,358.4c0.3-2.1,0.5-2.6,0.5-3.2c0-27.2,0.1-54.4,0-81.6c0-6.1-4.1-9.1-11.6-9
				c-6.1,0.1-9.8,3.6-9.8,9.4c-0.1,16.4-0.1,32.8,0,49.2c0,1.7,0.5,3.5,1.3,5c4.8,8.8,9.6,17.6,14.6,26.2
				C266.8,356,268.7,356.8,270.9,358.4z M197.4,342.8c-1.7,0-2.6,0-3.5,0c-3-0.2-6.6-0.3-7.5,3.1c-1,3.6-1.5,7.5,2.1,11
				c12.6,12.3,24.9,24.8,37.2,37.3c2.3,2.3,4.7,2.9,7.5,1.4c2.9-1.6,4.5-3.8,3-7.3c-0.9-2-1.5-4.1-2.8-5.8
				c-8.4-11.4-17-22.6-25.2-34C205.2,344.2,202.1,341.5,197.4,342.8z M163.3,371c1.8,3.2,2.7,6.2,4.7,8.2c10.8,11.1,21.9,22,32.9,33
				c0.9,0.9,1.9,1.8,3,2.6c3.3,2.2,6.6,1.1,10.2-3.1c2.5-2.9,3.4-5.8,0.3-9c-12.4-12.3-24.5-24.9-37.2-36.9
				c-1.9-1.8-6.4-1.8-9.4-1.2C166.2,365.1,165.1,368.4,163.3,371z M252.7,358.8c-6.3-11.4-12.8-23.1-19.4-34.7
				c-0.7-1.3-2.7-2.4-4.2-2.5c-3.2-0.4-6.6-0.7-9.7,0.1c-1.9,0.5-4.4,2.7-4.7,4.5c-0.8,4.1-0.4,8.2,3.1,11.8c3.5,3.5,6.1,7.9,9.1,12
				c4.7,6.3,9.4,12.5,13.9,18.4C244.9,365.1,248.6,362.1,252.7,358.8z"/>
			<path d="M36.8,165.2c4.6,0,9.1,0,14.2,0c0-4.7,0-9.2,0-13.9c4.9,0,9.2,0,14,0c0,4.5,0,8.9,0,13.8c4.8,0,9.3,0,14.1,0
				c0,4.9,0,9.2,0,14.1c-4.4,0-8.9,0-13.8,0c0,4.9,0,9.3,0,14c-4.8,0-9.3,0-14.1,0c0-4.5,0-8.9,0-13.8c-5,0-9.7,0-14.4,0
				C36.8,174.7,36.8,170,36.8,165.2z"/>
			<path d="M463.2,136.8c-4.6,0-9.1,0-14.2,0c0,4.7,0,9.2,0,13.9c-4.9,0-9.2,0-14,0c0-4.5,0-8.9,0-13.8c-4.8,0-9.3,0-14.1,0
				c0-4.9,0-9.2,0-14.1c4.4,0,8.9,0,13.8,0c0-4.9,0-9.3,0-14c4.8,0,9.3,0,14.1,0c0,4.5,0,8.9,0,13.8c5,0,9.7,0,14.4,0
				C463.2,127.3,463.2,132.1,463.2,136.8z"/>
			<path d="M392.1,37.3c0,4.6,0,9.1,0,14.2c4.7,0,9.2,0,13.9,0c0,4.9,0,9.2,0,14c-4.5,0-8.9,0-13.8,0c0,4.8,0,9.3,0,14.1
				c-4.9,0-9.2,0-14.1,0c0-4.4,0-8.9,0-13.8c-4.9,0-9.3,0-14,0c0-4.8,0-9.3,0-14.1c4.5,0,8.9,0,13.8,0c0-5,0-9.7,0-14.4
				C382.7,37.3,387.4,37.3,392.1,37.3z"/>
			<path d="M257.1,37.3c0,4.5,0,9.1,0,13.9c-4.8,0-9.1,0-14.2,0c0-4.6,0-9.2,0-13.9C247.6,37.3,252.4,37.3,257.1,37.3z"/>
			<path d="M285.5,187c14.4,5.9,19.8,20.7,5.7,31.8c3,15.2-4.8,24.5-20.5,24.5c-14.4,0-28.7,0-43.1,0c-10,0-17.6-5.9-19.6-15.6
				c-0.5-2.7,0.4-5.7,0.7-9.5c0.3,0.2-0.3,0-0.7-0.4c-12.2-9.9-7.9-23.2,3.3-29.1c2.7-1.4,3.3-2.8,3.5-5.6c0.4-5.3-1.2-8.7-5.5-12.2
				c-14.9-12.3-22.8-28.8-22.9-47.9c-0.1-30.2,21.5-55.9,50.4-62.5c35.7-8.2,70.3,17.5,76,52c4,24-4.7,44.1-23.3,59.6
				c-3.3,2.8-4.4,5.4-4,9.3C285.6,183.2,285.5,185,285.5,187z M243,186.5c0-13.7-0.1-27,0.1-40.3c0-2.9-1-4.5-3.4-5.9
				c-6.4-3.7-12.9-13-10-22.5c3.1-10,12.6-16.8,21.3-16.2c9.9,0.7,17.4,8.3,19.7,18.7c1.6,6.8-3.1,15.7-11.1,20.5
				c-2.1,1.3-2.7,2.6-2.7,4.9c0.1,12.7,0,25.5,0.1,38.2c0,0.8,0.2,1.7,0.3,2.9c2.4,0,4.6,0,6.8,0c2.3,0,4.6,0,7.3,0
				c0-4.8,0.3-9.1-0.1-13.3c-0.3-3.9,1-6,4.4-8c30.1-17.4,31.2-58.1,9.4-79c-13-12.5-29-16.1-46.3-12.5c-27.9,5.8-42,30.4-38.3,57
				c2.2,15.9,11.1,27.6,25.1,35.5c2.5,1.4,3.1,3,3,5.7c-0.2,4.8-0.1,9.6-0.1,14.6C233.6,186.5,238,186.5,243,186.5z M250.4,200.7
				c-10.6,0-21.3,0-31.9,0c-2.6,0-4.2,0.3-4.2,3.5c0,3,1.1,3.8,4,3.8c21.1-0.1,42.3-0.1,63.4,0c2.8,0,4-0.8,4-3.8
				c0-3.2-1.6-3.6-4.2-3.6C271.2,200.7,260.8,200.7,250.4,200.7z M249.5,229.3c8.3,0,16.6-0.1,24.8,0c2.6,0,4.2-0.4,4.2-3.6
				c0-3-1.2-3.8-4-3.8c-16.4,0.1-32.8,0.1-49.2,0c-2.8,0-4,0.8-4,3.8c0,3.2,1.6,3.6,4.2,3.6C233.6,229.2,241.6,229.3,249.5,229.3z
				 M257.2,122.8c0-5.4-1.7-7.4-6.8-7.4c-5.5-0.1-7.5,1.6-7.5,6.7c-0.1,5.7,1.7,7.6,7,7.7C255.2,129.8,257.1,128,257.2,122.8z"/>
			<path d="M150.5,250.3c0,5,0,9.4,0,14.1c-4.7,0-9.1,0-13.9,0c0-4.4,0-8.9,0-13.7c-4.9,0-9.3,0-14,0c0-4.8,0-9.3,0-14.1
				c4.4,0,8.8,0,13.6,0c0-4.8,0-9.3,0-14.1c4.9,0,9.2,0,14.1,0c0,4.4,0,8.9,0,13.7c4.9,0,9.3,0,14,0c0,4.8,0,9.3,0,14.1
				C159.9,250.3,155.5,250.3,150.5,250.3z"/>
			<path d="M399.3,228.9c-5,0-9.4,0-14.1,0c0-4.6,0-9,0-13.8c-4.8,0-9.3,0-14.1,0c0-4.9,0-9.2,0-14.1c4.5,0,9,0,13.8,0
				c0-4.9,0-9.3,0-14c4.8,0,9.3,0,14.1,0c0,4.4,0,8.8,0,13.7c4.8,0,9.3,0,14.1,0c0,4.9,0,9.2,0,14.1c-4.5,0-9,0-13.8,0
				C399.3,219.7,399.3,224.1,399.3,228.9z"/>
			<path d="M101,108.2c-5.2,0-9.6,0-14.2,0c0-4.7,0-9.1,0-13.9c4.6,0,9.1,0,13.9,0c0-4.9,0-9.3,0-13.9c4.7,0,9.1,0,13.9,0
				c0,4.3,0,8.8,0,13.8c5,0,9.5,0,14.2,0c0,4.9,0,9.2,0,14.1c-4.6,0-9.1,0-13.9,0c0,4.9,0,9.3,0,13.9c-4.7,0-9.1,0-13.9,0
				C101,117.9,101,113.4,101,108.2z"/>
			<path d="M321.4,115.7c4.6,0,8.9,0,13.5,0c0,4.5,0,9,0,13.7c-4.5,0-8.8,0-13.5,0C321.4,124.9,321.4,120.5,321.4,115.7z"/>
			<path d="M178.6,115.9c0,4.5,0,8.9,0,13.5c-4.6,0-8.9,0-13.6,0c0-4.4,0-8.8,0-13.5C169.4,115.9,173.8,115.9,178.6,115.9z"/>
			<path d="M308.5,81.1c3.9-2.3,7.5-4.4,11.6-6.8c2.3,3.9,4.5,7.6,6.9,11.6c-3.8,2.2-7.5,4.4-11.6,6.8
				C313,88.9,310.9,85.2,308.5,81.1z"/>
			<path d="M191.6,81.1c-2.4,4.2-4.5,7.7-6.8,11.6c-4-2.3-7.7-4.4-11.7-6.7c2.3-3.9,4.4-7.6,6.7-11.7
				C183.7,76.6,187.5,78.7,191.6,81.1z"/>
			<path d="M201.7,52.5c4.1-2.4,7.7-4.5,11.7-6.8c2.2,3.8,4.4,7.5,6.8,11.7c-3.9,2.3-7.5,4.4-11.6,6.8
				C206.2,60.3,204.1,56.6,201.7,52.5z"/>
			<path d="M184.7,152.5c2.3,4,4.4,7.5,6.8,11.6c-3.8,2.2-7.5,4.4-11.7,6.8c-2.3-4-4.5-7.7-6.8-11.7
				C177,157,180.6,154.9,184.7,152.5z"/>
			<path d="M320.2,171c-4.2-2.5-7.9-4.6-11.7-6.9c2.3-4,4.5-7.6,6.8-11.6c3.9,2.2,7.6,4.3,11.6,6.6
				C324.7,163.1,322.5,166.8,320.2,171z"/>
			<path d="M286.6,45.6c4,2.4,7.7,4.5,11.7,6.8c-2.3,4-4.5,7.7-6.8,11.7c-4-2.3-7.6-4.5-11.6-6.8C282.2,53.4,284.2,49.8,286.6,45.6z
				"/>
		</g>
	</g>
</g>
</svg>
