<?xml version="1.0" encoding="utf-8"?>
<!-- Generator: Adobe Illustrator 21.1.0, SVG Export Plug-In . SVG Version: 6.00 Build 0)  -->
<svg version="1.1" id="Layer_1" xmlns="http://www.w3.org/2000/svg" xmlns:xlink="http://www.w3.org/1999/xlink" x="0px" y="0px"
	 viewBox="0 0 82 18" style="enable-background:new 0 0 82 18;" xml:space="preserve">
<style type="text/css">
	.st0{fill:#FFFFFF;}
</style>
<g transform="translate(-18 -22)">
	<g>
		<path id="a" class="st0" d="M20.6,22h1.5v3.9c2.1-2.1,5.5-2.1,7.7,0c1,1,1.6,2.4,1.6,3.8s-0.5,2.8-1.6,3.8c-1,1-2.4,1.6-3.8,1.6
			c-3.1,0-5.4-2.3-5.4-6c0-0.2,0-0.5,0-0.7V22z M26,33.7c2.2,0,3.9-1.7,3.9-3.9s-1.7-3.9-3.9-3.9s-3.9,1.7-3.9,3.9l0,0
			C22.1,31.9,23.8,33.6,26,33.7L26,33.7L26,33.7z M32.4,34.8V22h1.5v12.8H32.4z M43.8,30.6c0,2.8-1.9,4.5-4.3,4.5s-4.3-1.8-4.3-4.5
			v-6h1.5v6.1c0,1.8,1.3,3,2.8,3c1.6,0,2.8-1.2,2.8-3v-6.1h1.5V30.6z M50.2,35.1c-2.9,0-5.4-2.3-5.4-5.3v-0.1c0-3,2.3-5.4,5.3-5.4
			c1.5,0,2.9,0.6,3.9,1.6s1.6,2.4,1.6,3.8v0.5h-9.2c0.2,2,1.9,3.4,3.9,3.4c1,0,2-0.4,2.8-1.2l1.1,1C53.1,34.5,51.7,35.1,50.2,35.1z
			 M54,28.9c-0.5-1.9-2-3.1-3.8-3.1s-3.4,1.3-3.8,3.1H54z M56.7,22h1.5v3.9c2.1-2.1,5.5-2.1,7.7,0c1,1,1.6,2.4,1.6,3.8
			s-0.6,2.8-1.6,3.8s-2.4,1.6-3.8,1.6c-3.1,0-5.4-2.3-5.4-6c0-0.2,0-0.5,0-0.7V22z M62.1,33.7c2.2,0,3.9-1.7,3.9-3.9
			s-1.7-3.9-3.9-3.9c-2.2,0-3.9,1.7-3.9,3.9l0,0C58.1,31.9,59.9,33.6,62.1,33.7C62,33.7,62.1,33.7,62.1,33.7z M73.9,35.1
			c-2.9,0-5.4-2.3-5.4-5.3v-0.1c0-3,2.3-5.4,5.3-5.4c1.5,0,2.9,0.6,3.9,1.6s1.6,2.4,1.6,3.8v0.5H70c0.2,2,1.9,3.4,3.9,3.4
			c1,0,1.9-0.4,2.8-1.2l1.1,1C76.8,34.5,75.4,35.1,73.9,35.1L73.9,35.1z M77.7,28.8c-0.5-1.9-2-3.1-3.8-3.1s-3.4,1.3-3.8,3.1H77.7z
			 M80.4,29.7c0-3.3,1.4-4.9,4.7-5.1v1.5c-2.2,0.2-3,1.3-3,3.5v5.2h-1.6L80.4,29.7z M85.3,29.7c0-3.3,1.4-4.9,4.7-5.1v1.5
			c-2.2,0.2-3,1.3-3,3.5v5.2h-1.6L85.3,29.7L85.3,29.7z M100,24.6v8.8c0,3.9-1.5,6.1-4.5,6.6v-1.4c1.9-0.4,2.9-1.9,2.9-4.4v-0.3
			c-0.8,0.8-1.8,1.2-2.9,1.3c-1.1,0-2.1-0.4-3-1.1c-1.3-1.2-1.4-2.4-1.4-4v-5.4h1.4V30c0,2.4,1.2,3.7,3,3.7c0.9,0,1.7-0.4,2.3-1.2
			c0.5-0.6,0.5-1.4,0.5-2.5v-5.4H100z M23.2,37.4c0,1.4-1.2,2.6-2.6,2.6l0,0c-1.4,0-2.6-1.1-2.6-2.6l0,0c0-1.4,1.2-2.6,2.6-2.6l0,0
			C22.1,34.8,23.2,36,23.2,37.4L23.2,37.4z M22,37.4c0-0.8-0.6-1.4-1.4-1.4s-1.4,0.6-1.4,1.4l0,0c0,0.8,0.6,1.4,1.4,1.4
			C21.4,38.8,22,38.2,22,37.4L22,37.4z"/>
	</g>
</g>
</svg>
